<?xml version="1.0" standalone="no"?><!DOCTYPE svg PUBLIC "-//W3C//DTD SVG 1.1//EN" "http://www.w3.org/Graphics/SVG/1.1/DTD/svg11.dtd"><svg t="1573021537266" class="icon" viewBox="0 0 1024 1024" version="1.1" xmlns="http://www.w3.org/2000/svg" p-id="2739" xmlns:xlink="http://www.w3.org/1999/xlink" width="200" height="200"><defs><style type="text/css"></style></defs><path d="M107.30318469 930.14881531c-8.61112125 1.58964188-16.09404844-6.04390219-14.33268282-14.62240593l45.27170625-220.54678969c1.20782156-5.88273188 8.47201594-8.06237344 12.71809688-3.8162925l184.80909937 184.80334312c4.29500812 4.29500812 2.00983687 11.64554438-3.96307312 12.74783719L107.30318469 930.14881531zM656.56342625 165.783215l204.86142375 204.84415594 53.74276219-53.738925c21.083625-21.08266594 21.084585-55.26620906 0.00095906-76.348875L786.66177969 112.03661562c-21.08170688-21.08170688-55.26237187-21.08170688-76.34503782-0.00095906L656.56342625 165.783215zM391.83571156 840.20115969l423.67370907-423.650685L610.65279313 211.69288813 186.97428781 635.35892281 391.83571156 840.20115969z" p-id="2740"></path></svg>